<svg width="73" height="73" viewBox="0 0 73 73" fill="none" xmlns="http://www.w3.org/2000/svg">
<g clip-path="url(#clip0_1330_733)">
<path d="M72.1072 43.4045C76.1055 23.9279 63.5579 4.89764 44.0812 0.899318C24.6046 -3.099 5.57435 9.44867 1.57603 28.9253C-2.42229 48.402 10.1254 67.4322 29.602 71.4305C49.0787 75.4288 68.1089 62.8812 72.1072 43.4045Z" fill="#102D69"/>
<path d="M62.9615 32.0674L65.29 31.8558H65.3182C65.4029 32.392 65.4594 32.9424 65.5158 33.4787C65.5722 34.0149 65.6005 34.5653 65.6287 35.1157H65.6005L63.272 35.3273L63.3002 36.3293L68.945 35.793L68.9027 34.7911L66.5319 35.0169H66.5178C66.4895 34.4665 66.4613 33.9302 66.4049 33.3799C66.3484 32.8436 66.292 32.2932 66.2073 31.757H66.2214L68.6064 31.5312L68.4511 30.5433L62.8063 31.0796L62.9615 32.0674Z" fill="white"/>
<path d="M21.8811 14.385L20.6534 12.367L21.2461 12L22.9254 12.6492C23.7722 12.9879 24.6048 13.1008 25.1975 12.4375L24.7459 11.6896C24.4637 12 24.0121 11.9859 23.3629 11.7601L21.5283 11.0969L22.1352 7.6394L21.1191 8.218L20.6816 11.2521L20.1877 11.5626L18.9458 9.53043L18.1273 10.109L21.0768 14.9354L21.8811 14.385Z" fill="white"/>
<path d="M34.2434 5.60726L34.2011 5.05689C34.2999 5.04278 34.3987 5.04278 34.4833 5.02867C35.0478 4.98633 35.6123 4.95811 36.1768 4.944L36.5437 9.728L37.5457 9.65744L37.1788 4.95811L37.1082 4.05493C36.5719 4.05493 36.0216 4.05493 35.4853 4.08316L33.3403 4.2525C33.2979 4.2525 33.2415 4.26661 33.1991 4.26661L33.2697 5.15568L33.2838 5.38147C33.5378 8.7966 33.0298 9.20585 32.4512 9.24819C32.3242 9.2623 32.1972 9.24819 32.1266 9.21997L32.0984 10.0526C32.2536 10.0808 32.5782 10.109 32.804 10.0949C33.9047 10.0102 34.5116 9.23408 34.2434 5.60726Z" fill="white"/>
<path d="M28.7115 11.1392C30.3767 10.5888 31.1529 8.92358 30.6448 7.39947C30.1368 5.84714 28.5704 4.95807 26.891 5.50845C25.2258 6.05882 24.4496 7.72405 24.9577 9.24816C25.4657 10.8005 27.0462 11.6896 28.7115 11.1392ZM27.1733 6.39751C28.2599 6.04471 29.3042 6.67975 29.657 7.73816C29.8263 8.27442 29.7981 8.82479 29.5864 9.27638C29.3747 9.72797 28.9937 10.0949 28.4433 10.2783C27.3567 10.6311 26.3124 9.9961 25.9596 8.93769C25.6774 8.04863 25.9737 7.15956 26.6934 6.67975C26.8487 6.56685 26.9898 6.45396 27.1733 6.39751Z" fill="white"/>
<path d="M58.7279 16.4312C59.8146 15.2458 59.8005 13.4112 58.5022 12.2258C57.7119 11.5202 56.7664 11.2803 55.8773 11.4779L56.1031 12.4798C56.7099 12.3246 57.3591 12.4516 57.8812 12.9173C58.6009 13.5806 58.6856 14.5543 58.2058 15.3446C57.7824 14.9071 57.345 14.4837 56.8934 14.0886C56.7099 13.9192 56.5123 13.7499 56.3289 13.5806L55.7503 14.2579C55.9337 14.4132 56.1172 14.5825 56.3007 14.7378C56.7522 15.147 57.1897 15.5704 57.6131 16.0078C56.8651 16.5582 55.8632 16.5723 55.1294 15.9091C54.5931 15.4292 54.4096 14.766 54.5366 14.1309L53.5347 13.9898C53.4077 14.9071 53.7181 15.8808 54.5225 16.6005C55.8209 17.786 57.6272 17.6307 58.7279 16.4312Z" fill="white"/>
<path d="M44.4464 31.4324C45.6883 29.993 46.2105 28.2431 46.2105 26.5778C46.2105 25.2372 45.8435 22.5559 43.4868 20.7072C41.8639 19.4512 40.4386 18.8585 37.0094 18.8585H35.2736C35.2171 18.8585 35.1748 18.8585 35.1042 18.8585H27.9635V52.6006H48.3555V46.1231C48.3555 39.9279 46.3516 35.7648 41.1724 33.9303C42.7953 33.2529 43.7973 32.2227 44.4464 31.4324ZM40.3963 30.7833C39.4649 31.9404 37.9549 33.013 35.8098 33.013C35.7957 33.013 35.7816 33.013 35.7675 33.013V34.6923C41.497 34.6923 43.7408 38.5026 43.7408 45.474V50.7237H40.0576V39.4622H35.8098V50.7378H32.564V20.5379H35.9086C37.1646 20.5379 39.0556 20.8201 40.3963 22.4853C41.0878 23.3321 41.5252 24.4469 41.6664 25.5759H35.8098V27.2411H41.7087C41.6664 28.3136 41.4406 29.5132 40.3963 30.7833Z" fill="white"/>
<path d="M49.5409 11.0828C50.1054 11.365 50.7969 11.1393 51.0791 10.5748C51.3614 10.0103 51.1356 9.31879 50.5711 9.03655C50.0066 8.75431 49.3151 8.9801 49.0329 9.54458C48.7506 10.1091 48.9764 10.8006 49.5409 11.0828Z" fill="white"/>
<path d="M40.6362 8.66964C41.0878 8.72609 41.5252 8.79665 41.9768 8.88132C42.4143 8.96599 42.8659 9.06478 43.3034 9.16356L43.5997 10.603L44.6581 10.8994L43.2469 4.69002L42.3296 4.53479L38.7593 9.79861L39.8318 9.89739L40.6362 8.66964ZM42.5413 5.80488L43.0917 8.21805C42.7671 8.14749 42.4566 8.07693 42.1321 8.02048C41.8075 7.96403 41.497 7.90759 41.1724 7.85114L42.5413 5.80488Z" fill="white"/>
<path d="M63.3003 23.191C61.7762 23.7555 60.9577 25.3642 61.5645 27.0154C62.1713 28.6665 63.8789 29.358 65.3889 28.7935C66.913 28.229 67.7315 26.6202 67.1247 24.9691C66.5037 23.318 64.8103 22.6265 63.3003 23.191ZM66.2497 25.2796C66.6449 26.338 66.0663 27.4246 65.022 27.8056C64.9232 27.848 64.8244 27.8339 64.7397 27.8621C63.7801 28.0879 62.8064 27.6786 62.4536 26.7049C62.1995 26.0416 62.3407 25.3642 62.7358 24.8703C62.7922 24.7856 62.8769 24.7151 62.9475 24.6445C62.9616 24.6304 62.9757 24.6022 62.9898 24.5881C63.0322 24.5457 63.0886 24.5175 63.1451 24.4752C63.2015 24.4328 63.2579 24.3905 63.3144 24.3482C63.3144 24.3482 63.3144 24.3482 63.3285 24.3482C63.4414 24.2776 63.5543 24.2212 63.6813 24.1788C64.2035 23.9813 64.7538 23.9954 65.2195 24.1788C65.6711 24.3764 66.0521 24.7433 66.2497 25.2796Z" fill="white"/>
<path d="M58.1353 20.4956L60.111 19.1973L60.492 19.7759L59.8993 21.4693C59.5888 22.3302 59.5041 23.1628 60.1815 23.7414L60.9154 23.2616C60.6049 22.9934 60.6049 22.5419 60.8025 21.8927L61.3952 20.0299L64.8667 20.5238L64.2458 19.5219L61.1976 19.1832L60.873 18.7034L62.8628 17.3909L62.256 16.5865L57.5284 19.6912L58.1353 20.4956Z" fill="white"/>
<path d="M9.57546 26.4226C10.2105 26.4791 10.7609 26.0275 10.8314 25.3925C10.8879 24.7574 10.4363 24.207 9.80126 24.1365C9.16621 24.08 8.61584 24.5316 8.54528 25.1667C8.47472 25.8017 8.94042 26.3521 9.57546 26.4226Z" fill="white"/>
<path d="M46.4504 60.7857L44.7147 65.7249L43.4446 61.7594L42.4708 61.9852L44.2207 67.4042L45.1662 67.1643L46.8738 62.2674L48.1439 66.2047L49.0612 65.8378L47.3254 60.4329L46.4504 60.7857Z" fill="white"/>
<path d="M36.8541 64.3278C36.2191 64.3278 35.7111 64.8358 35.7111 65.4708C35.7111 66.1059 36.2191 66.6139 36.8541 66.6139C37.4892 66.6139 37.9972 66.1059 37.9972 65.4708C37.9972 64.8499 37.4892 64.3278 36.8541 64.3278Z" fill="white"/>
<path d="M51.9541 57.8503L53.196 59.8683L52.6032 60.2352L50.9239 59.6002C50.0772 59.2615 49.2446 59.1627 48.6519 59.8259L49.1176 60.5739C49.3998 60.2634 49.8514 60.2775 50.5005 60.5033L52.3492 61.1525L51.7706 64.61L52.7867 64.0172L53.2101 60.969L53.704 60.6586L54.96 62.6766L55.7785 62.098L52.8008 57.2858L51.9541 57.8503Z" fill="white"/>
<path d="M57.3591 52.8264L58.2905 57.9774L55.2281 55.1549L54.5084 55.8323L58.6997 59.6849L59.4053 58.9934L58.4739 53.899L61.5221 56.6932L62.1431 55.9311L57.9518 52.0785L57.3591 52.8264Z" fill="white"/>
<path d="M66.2497 38.3474C64.6409 38.0651 63.1168 39.0389 62.8204 40.7747C62.51 42.5104 63.6248 43.964 65.2195 44.2462C66.8283 44.5285 68.3524 43.5547 68.6487 41.8189C68.9451 40.0832 67.8302 38.6155 66.2497 38.3474ZM67.7315 41.6355C67.6891 41.9177 67.5762 42.1718 67.4351 42.3834C67.0117 43.0185 66.2074 43.3431 65.3889 43.2019C64.4151 43.0326 63.7236 42.2846 63.6954 41.3532C63.6954 41.2262 63.6954 41.0851 63.7236 40.944C63.766 40.6618 63.8789 40.4077 64.02 40.1961C64.4433 39.561 65.2477 39.2364 66.0662 39.3776C67.1811 39.5751 67.929 40.5206 67.7315 41.6355Z" fill="white"/>
<path d="M26.9898 62.4226C26.764 63.1846 27.1027 63.6786 27.6813 64.0878C27.2156 64.1866 26.7358 64.4265 26.5382 65.0898C26.4253 65.4708 26.4677 65.8095 26.637 66.12C26.8628 66.5292 27.3003 66.882 27.9212 67.0655L30.0098 67.6017L31.5904 62.1403L29.4453 61.5194C28.2458 61.1525 27.2862 61.4347 26.9898 62.4226ZM28.3164 66.2046C27.6954 66.0212 27.4273 65.6543 27.5543 65.2309C27.5825 65.1321 27.6249 65.0474 27.6672 64.9769C27.8224 64.7652 28.0623 64.6805 28.3728 64.6946C28.5139 64.6946 28.655 64.7229 28.8103 64.7652L29.7417 65.0333L29.3183 66.4869L28.3164 66.2046ZM28.8385 63.8902C28.0764 63.6644 27.7942 63.2834 27.9212 62.8177C28.0341 62.4367 28.3305 62.2532 28.7397 62.2815C28.8808 62.2815 29.0361 62.3097 29.1913 62.3661L30.4049 62.7189L29.9675 64.2289L28.8385 63.8902Z" fill="white"/>
<path d="M61.4939 45.7139L63.4978 46.857C64.1752 47.238 64.9796 47.6755 65.6429 48.0424L65.6288 48.0565C64.909 47.8872 60.7319 47.3791 60.7319 47.3791L60.3649 48.1412C60.3649 48.1412 63.2438 51.3023 63.7942 51.7821L63.7801 51.8104C63.0886 51.4575 62.2701 51.1047 61.5927 50.8084L59.4477 49.877L58.8832 50.7802L64.1893 52.9958L64.9091 51.768C64.9091 51.768 62.2419 48.8609 61.7479 48.4517L61.762 48.4234C62.3971 48.5646 66.2779 48.9879 66.2779 48.9879L66.8283 47.6473L61.8608 44.7261L61.4939 45.7139Z" fill="white"/>
<path d="M11.1278 42.2424L9.70243 41.8896C9.60365 41.4521 9.53308 41.0005 9.46252 40.563C9.37785 40.1255 9.3214 39.674 9.27907 39.2224L10.5209 38.4462L10.4504 37.3455L5.08777 40.7747L5.22889 41.692L11.3959 43.2725L11.1278 42.2424ZM8.43234 39.7445C8.47468 40.0691 8.51701 40.3937 8.57346 40.7183C8.62991 41.0428 8.68636 41.3533 8.74281 41.6779L6.34375 41.0711L8.43234 39.7445Z" fill="white"/>
<path d="M21.5708 59.953C20.9922 60.9409 21.4155 61.9287 22.5163 62.592L23.2925 63.0577L22.2482 64.8358L23.109 65.3438L26.0161 60.4187L24.3791 59.4309C23.236 58.7676 22.1494 58.9652 21.5708 59.953ZM23.7299 62.2956L22.982 61.8582C22.3328 61.4771 22.1211 60.9832 22.4175 60.4752C22.5868 60.1929 22.7985 60.0377 23.0525 59.9954C23.3066 59.953 23.6029 60.0377 23.9275 60.2212L24.6896 60.6727L23.7299 62.2956Z" fill="white"/>
<path d="M14.6275 21.935C15.9823 19.8182 17.6334 17.9131 19.5244 16.262L18.8188 15.641L15.1779 12.494C14.938 12.7198 14.684 12.9456 14.4582 13.1855L18.0991 16.3184C17.5487 16.8405 17.0266 17.3768 16.5186 17.9413L12.9059 14.8225C12.6801 15.0765 12.4684 15.3306 12.2426 15.5846L15.8553 18.7033C15.3755 19.2678 14.9239 19.8605 14.5005 20.4815L10.8596 17.3486C10.662 17.6167 10.4786 17.899 10.281 18.1671L13.9219 21.3141L14.6275 21.935Z" fill="white"/>
<path d="M6.51311 35.4685C7.48684 35.5532 8.03722 34.9604 8.23479 34.4947L9.23675 35.3556C9.50488 35.5955 9.68833 36.0471 9.57544 36.3575L10.4363 36.3434C10.648 35.8777 10.5351 35.2004 9.85768 34.6359L8.51703 33.5069L8.57348 32.8013L10.6197 32.9848L10.7609 31.9687L5.1019 31.5171C5.04545 31.8276 4.91844 33.0835 4.90433 33.2529C4.76321 34.8193 5.52526 35.3979 6.51311 35.4685ZM5.93451 32.6037L7.62796 32.7448L7.57152 33.394C7.52918 33.9726 7.19049 34.4665 6.59778 34.4101C6.14619 34.3677 5.79339 34.0996 5.84984 33.2811C5.87806 33.0976 5.89217 32.8719 5.93451 32.6037Z" fill="white"/>
<path d="M15.0509 51.1048C13.6256 49.0303 12.5248 46.7724 11.7487 44.3733L10.9019 44.7825L6.58362 46.8994C6.69652 47.2098 6.80941 47.5203 6.93642 47.8449L11.2406 45.7139C11.5087 46.4195 11.791 47.1252 12.1156 47.8025L7.82548 49.9052C7.9666 50.2157 8.12184 50.5121 8.26296 50.8084L12.553 48.7057C12.8917 49.369 13.2586 50.0181 13.6538 50.6532L9.3637 52.7841C9.53305 53.0664 9.71651 53.3486 9.89996 53.6308L14.2183 51.514L15.0509 51.1048Z" fill="white"/>
<path d="M20.7541 57.2001L17.4672 61.8759L18.2869 62.4521L21.5738 57.7763L20.7541 57.2001Z" fill="white"/>
<path d="M17.5205 53.9977C16.7867 53.2075 15.813 52.9111 14.9098 53.0381L15.0509 54.0401C15.6859 53.9131 16.3492 54.0824 16.829 54.6187C17.6052 55.4513 17.4782 56.679 16.6597 57.427C15.8271 58.189 14.6275 58.2314 13.8514 57.3988C13.3716 56.8907 13.2445 56.2274 13.3998 55.6206L12.3978 55.4089C12.2144 56.2839 12.4543 57.2435 13.1599 58.0056C14.3594 59.2898 16.194 59.2898 17.3653 58.2031C18.5648 57.0883 18.7059 55.296 17.5205 53.9977Z" fill="white"/>
</g>
<defs>
<clipPath id="clip0_1330_733">
<rect width="72" height="72" fill="white" transform="translate(0.839966 0.160034)"/>
</clipPath>
</defs>
</svg>
